<?xml version="1.0" encoding="utf-8"?>
<!-- Generator: Adobe Illustrator 17.0.2, SVG Export Plug-In . SVG Version: 6.00 Build 0)  -->
<!DOCTYPE svg PUBLIC "-//W3C//DTD SVG 1.1//EN" "http://www.w3.org/Graphics/SVG/1.1/DTD/svg11.dtd">
<svg version="1.1" id="Layer_1" xmlns="http://www.w3.org/2000/svg" xmlns:xlink="http://www.w3.org/1999/xlink" x="0px" y="0px"
	 width="741.211px" height="189.943px" viewBox="0 0 741.211 189.943" enable-background="new 0 0 741.211 189.943"
	 xml:space="preserve">
<g>
	<g>
		<path d="M0,121.373c0.308-2.181,0.566-4.371,0.931-6.542c2.373-14.144,8.584-26.182,19.663-35.495
			c7.823-6.577,16.896-10.513,26.914-12.229c10.918-1.87,21.724-1.277,32.311,2.099c8.945,2.852,16.658,7.714,23.134,14.521
			c0.135,0.142,0.239,0.313,0.444,0.586c-5.02,4.452-10.011,8.879-15.111,13.402c-0.53-0.556-1.026-1.047-1.49-1.567
			c-5.897-6.609-13.068-10.967-21.967-11.973c-11.91-1.346-22.872,0.897-31.91,9.357c-5.406,5.06-8.72,11.412-10.509,18.53
			c-2.916,11.599-2.664,23.072,2.286,34.117c5.17,11.536,13.758,19.3,26.299,21.941c9.873,2.079,19.453,1.073,28.229-4.404
			c3.355-2.094,6.103-4.862,8.529-7.964c0.218-0.279,0.449-0.549,0.746-0.911c4.733,4.486,9.421,8.929,14.166,13.426
			c-1.829,2.361-3.924,4.243-6.098,6.037c-7.011,5.786-15.057,9.405-23.944,11.1c-11.731,2.238-23.379,1.821-34.704-2.112
			c-17.937-6.229-29.452-18.745-35.094-36.768c-1.386-4.428-2.194-8.982-2.549-13.614c-0.043-0.555-0.181-1.102-0.276-1.653
			C0,127.962,0,124.668,0,121.373z"/>
		<path d="M221.437,0c0.672,0.215,1.342,0.439,2.018,0.642c6.417,1.927,10.92,8.276,10.612,14.97
			c-0.339,7.368-4.808,12.894-11.825,14.171c-9.392,1.709-16.215-3.587-17.93-11.044c-1.938-8.431,3.182-16.62,11.632-18.446
			c0.293-0.063,0.573-0.193,0.86-0.293C218.348,0,219.893,0,221.437,0z"/>
		<path d="M741.211,177.273c-0.433,1.363-0.746,2.779-1.321,4.079c-2.592,5.854-8.562,9.156-15.228,8.511
			c-7.655-0.74-13.085-6.284-13.507-13.788c-0.44-7.823,4.438-14.386,11.874-15.975c8.097-1.731,16.08,3.424,17.863,11.53
			c0.076,0.344,0.212,0.674,0.32,1.011C741.211,174.185,741.211,175.729,741.211,177.273z"/>
		<path d="M328.539,132.248c0.082,2.907,0.595,5.472,1.309,7.986c3.077,10.841,9.297,19.264,19.3,24.682
			c4.585,2.484,9.528,3.801,14.743,4.037c6.217,0.28,12.324-0.362,18.252-2.338c7.585-2.528,13.704-7.158,18.831-13.197
			c0.464-0.547,0.924-1.098,1.503-1.788c4.804,3.744,9.568,7.456,14.542,11.333c-1.717,1.961-3.329,3.93-5.074,5.775
			c-10.11,10.691-22.637,16.269-37.204,17.534c-8.983,0.78-17.894,0.583-26.604-2.01c-16.44-4.895-28.013-15.358-34.911-30.985
			c-4.185-9.482-5.696-19.491-5.293-29.811c0.436-11.154,3.224-21.634,9.229-31.119c8.284-13.085,20.134-21.222,35.163-24.645
			c11.518-2.623,23.012-2.3,34.221,1.603c14.74,5.131,24.501,15.42,30.025,29.865c3.083,8.062,4.349,16.472,4.482,25.071
			c0.04,2.611,0.006,5.223,0.006,8.008C390.179,132.248,359.48,132.248,328.539,132.248z M400.606,116.005
			c-0.329-2.365-0.5-4.619-0.972-6.807c-2.439-11.312-8.905-19.256-19.906-23.198c-6.564-2.352-13.362-2.686-20.235-1.748
			c-15.541,2.12-26.581,12.089-30.199,27.28c-0.341,1.432-0.536,2.898-0.821,4.474C352.538,116.005,376.387,116.005,400.606,116.005
			z"/>
		<path d="M501.069,186.666c-13.064-0.005-23.734-2.271-33.564-7.76c-15.066-8.414-24.314-21.239-27.983-38.016
			c-2.788-12.749-2.134-25.404,2.554-37.634c6.433-16.783,18.44-27.928,35.392-33.71c10.047-3.426,20.395-4.171,30.908-2.857
			c11.259,1.408,21.518,5.309,30.455,12.386c11.073,8.768,17.721,20.264,20.415,34.037c2.324,11.886,1.789,23.684-2.337,35.125
			c-6.651,18.443-19.715,30.17-38.367,35.799C512.25,185.934,505.778,186.713,501.069,186.666z M539.92,126.418
			c0.012-4.707-0.572-9.337-1.924-13.846c-3.321-11.079-9.836-19.595-20.339-24.733c-7.854-3.842-16.212-4.804-24.81-3.575
			c-12.49,1.786-22.229,7.969-28.36,19.043c-7.429,13.42-7.876,27.495-2.256,41.644c4.071,10.249,11.452,17.443,21.806,21.404
			c6.76,2.586,13.787,3.216,20.942,2.304c11.651-1.486,20.974-6.912,27.588-16.698C537.771,144.262,539.86,135.62,539.92,126.418z"
			/>
		<path d="M253.229,19.128c0-2.792,0-5.347,0-8.038c0.632-0.03,1.181-0.078,1.729-0.078c109.836-0.003,219.672-0.006,329.508,0.001
			c12.489,0.001,23.761,9.47,26.068,21.922c0.363,1.961,0.554,3.983,0.555,5.977c0.032,37.573,0.022,75.146,0.026,112.718
			c0.001,8.616,5.505,15.994,13.805,18.324c1.807,0.507,3.744,0.771,5.622,0.776c19.867,0.054,39.734,0.034,59.602,0.034
			c0.603,0,1.207,0,1.897,0c0,2.757,0,5.352,0,8.081c-0.601,0.031-1.149,0.083-1.697,0.084c-20.022,0.004-40.043,0.021-60.065-0.003
			c-15.368-0.019-27.408-12.099-27.408-27.443c-0.001-37.624,0.001-75.248-0.001-112.873c-0.001-9.336-5.92-16.886-14.993-18.988
			c-1.634-0.379-3.365-0.473-5.05-0.473c-96.608-0.021-193.217-0.019-289.825-0.019c-12.61,0-25.22,0-37.83,0
			C254.564,19.128,253.957,19.128,253.229,19.128z"/>
		<path d="M253.442,43.964c6.419,0,12.68,0,19.089,0c0,8.179,0,16.375,0,24.729c5.217,0,10.29,0,15.501,0c0,6.397,0,12.635,0,19.073
			c-5.043,0-10.104,0-15.303,0c-0.041,0.679-0.096,1.17-0.096,1.661c-0.004,19.607-0.02,39.214,0.019,58.821
			c0.004,2.15,0.154,4.331,0.54,6.442c1.046,5.73,3.977,8.511,9.754,9.289c2.437,0.328,4.914,0.366,7.375,0.511
			c0.755,0.044,1.514,0.007,2.353,0.007c0,6.437,0,12.695,0,19.121c-0.553,0.028-1.1,0.064-1.647,0.082
			c-5.399,0.176-10.797,0.324-16.158-0.57c-3.107-0.518-6.12-1.336-8.944-2.764c-5.731-2.897-8.864-7.778-10.488-13.792
			c-1.364-5.047-1.881-10.215-1.89-15.419c-0.057-35.199-0.074-70.397-0.104-105.596C253.442,45.056,253.442,44.554,253.442,43.964z
			"/>
		<path d="M184.986,86.435c-4.581-0.504-8.997-0.488-13.355,0.492c-13.064,2.936-21.997,10.861-27.381,22.945
			c-2.581,5.793-3.882,11.922-4.085,18.251c-0.151,4.678-0.135,9.362-0.141,14.044c-0.017,13.073-0.006,26.146-0.006,39.219
			c0,0.715,0,1.429,0,2.248c-6.372,0-12.619,0-18.967,0c0-38.149,0-76.252,0-114.461c6.292,0,12.492,0,18.93,0
			c0,5.987,0,11.957,0,17.927c6.503-9.21,15.227-15.055,25.701-18.39c6.257-1.992,12.675-2.525,19.304-1.356
			C184.986,73.686,184.986,79.982,184.986,86.435z"/>
		<path d="M209.496,183.64c0-38.171,0-76.284,0-114.485c6.339,0,12.594,0,18.958,0c0,38.163,0,76.274,0,114.485
			C222.187,183.64,215.929,183.64,209.496,183.64z"/>
	</g>
</g>
</svg>
